<svg width="500" height="500" viewBox="0 0 500 500" fill="none" xmlns="http://www.w3.org/2000/svg">
<path d="M403.431 177.497C396.538 232.452 348.394 287.317 295.445 322.65C158.613 414.702 26.3321 258.501 59.6988 202.4C84.7441 145.498 162.87 161.127 196.105 138.758C382.896 12.1428 409.907 131.501 403.431 177.497Z" fill="#F37A20"/>
<path opacity="0.9" d="M403.431 177.497C396.538 232.452 348.394 287.317 295.445 322.65C158.613 414.702 26.3321 258.501 59.6988 202.4C84.7441 145.498 162.87 161.127 196.105 138.758C382.896 12.1428 409.907 131.501 403.431 177.497Z" fill="white"/>
<path d="M249.521 434.172C358.056 434.172 446.042 429.035 446.042 422.699C446.042 416.362 358.056 411.225 249.521 411.225C140.985 411.225 53 416.362 53 422.699C53 429.035 140.985 434.172 249.521 434.172Z" fill="#F5F5F5"/>
<path d="M249.481 366.76H105.554L97.6787 135.292H241.606L249.481 366.76Z" fill="#F37A20"/>
<path d="M256.667 359.574H112.741L104.855 128.105H248.782L256.667 359.574Z" fill="#F37A20"/>
<path opacity="0.3" d="M256.667 359.574H112.741L104.855 128.105H248.782L256.667 359.574Z" fill="white"/>
<path d="M208.444 223.354C223.854 207.678 223.199 182.045 206.98 166.1C190.76 150.156 165.119 149.939 149.709 165.615C134.298 181.292 134.954 206.925 151.173 222.869C167.392 238.814 193.033 239.031 208.444 223.354Z" fill="#F37A20"/>
<path d="M212.498 194.494C212.705 200.009 211.502 205.486 209.001 210.407C206.302 215.709 202.179 220.155 197.095 223.245C192.01 226.335 186.165 227.947 180.216 227.901C174.126 227.868 168.152 226.234 162.894 223.164C157.635 220.093 153.276 215.694 150.255 210.407C147.437 205.562 145.863 200.095 145.673 194.494C145.486 190.15 146.184 185.815 147.725 181.75C149.265 177.685 151.616 173.975 154.634 170.847C157.653 167.719 161.276 165.237 165.283 163.552C169.29 161.867 173.598 161.014 177.945 161.046C186.9 161.109 195.487 164.62 201.921 170.848C208.356 177.077 212.144 185.545 212.498 194.494V194.494Z" fill="white"/>
<path opacity="0.6" d="M208.977 210.407C206.278 215.709 202.155 220.155 197.071 223.245C191.986 226.335 186.141 227.947 180.192 227.901C174.102 227.868 168.128 226.234 162.87 223.164C157.611 220.093 153.252 215.694 150.23 210.407C158.802 204.563 168.945 201.456 179.32 201.497C189.862 201.52 200.168 204.616 208.977 210.407Z" fill="#F37A20"/>
<path opacity="0.6" d="M189.489 193.661C195.156 187.896 194.915 178.47 188.951 172.608C182.987 166.745 173.558 166.665 167.892 172.429C162.225 178.194 162.466 187.619 168.43 193.482C174.394 199.345 183.822 199.425 189.489 193.661Z" fill="#F37A20"/>
<path d="M227.751 275.752H135.942L135.324 257.508H227.133L227.751 275.752Z" fill="white"/>
<path d="M228.866 308.358H137.047L136.428 290.114H228.247L228.866 308.358Z" fill="white"/>
<path d="M193.432 292.628L171.306 295.668C171.095 295.693 170.891 295.76 170.707 295.867C170.524 295.973 170.364 296.117 170.238 296.288C170.113 296.459 170.024 296.655 169.977 296.862C169.931 297.07 169.928 297.284 169.968 297.493L172.877 312.321C172.972 312.757 173.227 313.14 173.591 313.397C173.955 313.654 174.402 313.766 174.843 313.71L196.97 310.669C197.18 310.643 197.383 310.573 197.566 310.465C197.749 310.357 197.907 310.212 198.031 310.04C198.156 309.868 198.244 309.672 198.29 309.465C198.335 309.258 198.338 309.043 198.297 308.835L195.399 294.006C195.303 293.572 195.048 293.189 194.684 292.934C194.32 292.678 193.873 292.569 193.432 292.628V292.628ZM187.077 307.649L183.023 308.186L182.628 303.402C182.21 303.221 181.842 302.943 181.554 302.59C181.267 302.237 181.068 301.82 180.976 301.375C180.901 301.03 180.9 300.673 180.972 300.327C181.044 299.981 181.188 299.655 181.394 299.368C181.601 299.081 181.865 298.841 182.17 298.663C182.475 298.485 182.814 298.373 183.165 298.334C183.885 298.242 184.613 298.422 185.206 298.841C185.799 299.259 186.214 299.885 186.368 300.594C186.456 301.023 186.429 301.467 186.29 301.882C186.151 302.296 185.905 302.667 185.577 302.956L187.077 307.649Z" fill="#F37A20"/>
<path d="M191.24 291.827C190.848 291.877 190.453 291.779 190.13 291.552C189.808 291.325 189.582 290.986 189.496 290.601L189.212 289.151C188.807 287.173187.699 285.409 186.092 284.187C184.485 282.964 182.49 282.365 180.476 282.502C179.459 282.56 178.467 282.836 177.567 283.312C176.666 283.787 175.879 284.45 175.258 285.257C174.636 286.064 174.196 286.995 173.967 287.987C173.737 288.979 173.724 290.009 173.928 291.006L174.252 292.678C174.29 292.864 174.289 293.055 174.248 293.24C174.208 293.424 174.129 293.599 174.018 293.751C173.906 293.904 173.764 294.032 173.6 294.126C173.436 294.221 173.254 294.28 173.066 294.3V294.3C172.674 294.355 172.276 294.259 171.953 294.031C171.629 293.803 171.404 293.461 171.323 293.074L171.049 291.665C170.771 290.348 170.762 288.989 171.022 287.668C171.283 286.348 171.807 285.094 172.565 283.982C173.322 282.869 174.297 281.921 175.43 281.195C176.563 280.469 177.831 279.979 179.158 279.755C182.035 279.272 184.988 279.916 187.404 281.552C189.82 283.188 191.513 285.692 192.132 288.543L192.456 290.205C192.494 290.393 192.491 290.586 192.449 290.773C192.407 290.96 192.326 291.136 192.211 291.289C192.096 291.442 191.95 291.569 191.783 291.662C191.615 291.754 191.43 291.811 191.24 291.827V291.827Z" fill="#F37A20"/>
<path d="M213.714 333.91H153.944L153.548 322.031H213.308L213.714 333.91Z" fill="#F37A20"/>
<path d="M184.875 266.63C184.893 267.063 184.823 267.495 184.668 267.901C184.514 268.306 184.279 268.676 183.978 268.987C183.676 269.299 183.315 269.547 182.915 269.715C182.515 269.882 182.085 269.967 181.652 269.964C180.758 269.957 179.901 269.607 179.258 268.987C178.615 268.366 178.235 267.523 178.196 266.63C178.178 266.196 178.248 265.764 178.402 265.359C178.556 264.953 178.791 264.584 179.093 264.272C179.394 263.96 179.756 263.713 180.156 263.545C180.555 263.377 180.985 263.292 181.419 263.295C182.313 263.299 183.172 263.649 183.815 264.27C184.459 264.891 184.839 265.736 184.875 266.63V266.63Z" fill="#263238"/>
<path d="M170.462 266.63C170.481 267.063 170.412 267.496 170.258 267.902C170.105 268.308 169.87 268.679 169.568 268.991C169.266 269.303 168.904 269.55 168.504 269.717C168.103 269.885 167.673 269.969 167.239 269.964C166.346 269.957 165.49 269.607 164.849 268.986C164.207 268.365 163.829 267.522 163.793 266.63C163.775 266.196 163.845 265.764 163.999 265.359C164.154 264.953 164.389 264.584 164.69 264.272C164.991 263.96 165.353 263.713 165.753 263.545C166.153 263.377 166.582 263.292 167.016 263.295C167.909 263.3 168.767 263.649 169.409 264.27C170.051 264.892 170.428 265.737 170.462 266.63V266.63Z" fill="#263238"/>
<path d="M156.142 266.63C156.16 267.063 156.089 267.495 155.935 267.901C155.781 268.306 155.546 268.676 155.245 268.987C154.943 269.299 154.582 269.547 154.182 269.715C153.782 269.882 153.352 269.967 152.919 269.964C152.025 269.96 151.168 269.61 150.526 268.989C149.884 268.368 149.506 267.522 149.472 266.63C149.455 266.196 149.525 265.764 149.679 265.359C149.833 264.953 150.068 264.584 150.37 264.272C150.671 263.96 151.033 263.713 151.432 263.545C151.832 263.377 152.262 263.292 152.696 263.295C153.589 263.3 154.446 263.649 155.088 264.27C155.73 264.892 156.108 265.737 156.142 266.63V266.63Z" fill="#263238"/>
<path d="M199.239 266.63C199.257 267.063 199.187 267.495 199.032 267.901C198.878 268.306 198.643 268.676 198.342 268.988C198.041 269.299 197.679 269.547 197.279 269.715C196.879 269.882 196.45 269.967 196.016 269.964C195.123 269.96 194.265 269.61 193.623 268.989C192.981 268.368 192.604 267.523 192.57 266.63C192.555 266.198 192.627 265.767 192.784 265.364C192.94 264.961 193.176 264.594 193.479 264.285C193.781 263.976 194.143 263.732 194.542 263.567C194.942 263.402 195.371 263.32 195.803 263.325C196.69 263.332 197.54 263.679 198.179 264.293C198.818 264.908 199.198 265.744 199.239 266.63V266.63Z" fill="#263238"/>
<path d="M213.601 266.63C213.621 267.063 213.551 267.496 213.398 267.902C213.244 268.308 213.009 268.679 212.707 268.991C212.406 269.303 212.043 269.55 211.643 269.717C211.243 269.885 210.812 269.969 210.378 269.964C209.485 269.957 208.63 269.607 207.988 268.986C207.346 268.365 206.968 267.522 206.932 266.63C206.914 266.196 206.984 265.764 207.139 265.359C207.293 264.953 207.528 264.584 207.829 264.272C208.131 263.96 208.492 263.713 208.892 263.545C209.292 263.377 209.721 263.292 210.155 263.295C211.049 263.3 211.906 263.649 212.548 264.27C213.19 264.892 213.567 265.737 213.601 266.63V266.63Z" fill="#263238"/>
<path d="M334.566 177.456C335.914 179.625 337.039 181.692 338.195 183.851C339.35 186.01 340.394 188.179 341.418 190.399C343.507 194.893 345.235 199.547 346.587 204.315C346.77 204.913 346.902 205.552 347.054 206.17L347.277 207.113L347.388 207.579L347.52 208.349C347.748 210.097 347.642 211.872 347.206 213.579C346.506 216.23 345.442 218.772 344.043 221.13C341.542 225.417 338.519 229.376 335.043 232.918L330.776 229.695C332.918 225.758 334.823 221.696 336.482 217.532C337.221 215.697 337.742 213.782 338.033 211.826C338.126 211.228 338.098 210.618 337.952 210.032L337.546 208.795C337.384 208.288 337.232 207.782 337.04 207.265C335.498 203.083 333.714 198.995 331.698 195.021C329.671 190.966 327.492 186.912 325.312 183.04L334.566 177.456Z" fill="#FF8B7B"/>
<path d="M331.863 228.286L327.201 230.749L332.552 237.013C332.552 237.013 335.897 234.753 336.049 231.307L331.863 228.286Z" fill="#FF8B7B"/>
<path d="M320.946 234.611L326.672 239.162L332.551 237.013L327.2 230.749L320.946 234.611Z" fill="#FF8B7B"/>
<path d="M301.362 144.292C301.251 144.86 300.855 145.255 300.491 145.184C300.126 145.113 299.913 144.586 300.024 144.028C300.136 143.471 300.531 143.015 300.906 143.136C301.281 143.258 301.474 143.724 301.362 144.292Z" fill="#263238"/>
<path d="M300.909 145.265C299.889 146.853 298.654 148.292 297.24 149.542C297.574 149.888 297.979 150.158 298.427 150.333C298.875 150.508 299.355 150.584 299.835 150.556L300.909 145.265Z" fill="#FF5652"/>
<path d="M299.083 165.151V158.502L307.88 159.516C307.88 159.516 307.738 165.232 302.812 166.915L299.083 165.151Z" fill="#FF8B7B"/>
<path d="M301.617 153.718L307.81 155.502L307.922 159.566L299.124 158.502L301.617 153.718Z" fill="#FF8B7B"/>
<path opacity="0.2" d="M307.811 155.502L301.618 153.718L300.412 156.029C300.477 157.85 301.046 159.617 302.056 161.134C303.065 162.651 304.474 163.859 306.128 164.624C307.192 163.138 307.814 161.381 307.922 159.556L307.811 155.502Z" fill="black"/>
<path d="M304.062 141.586C304.127 141.584 304.19 141.564 304.244 141.528C304.298 141.492 304.341 141.441 304.368 141.382C304.394 141.322 304.403 141.257 304.394 141.192C304.385 141.128 304.358 141.067 304.316 141.018C303.959 140.616 303.512 140.305 303.012 140.111C302.511 139.917 301.971 139.846 301.437 139.903C301.35 139.918 301.272 139.967 301.221 140.039C301.169 140.111 301.149 140.201 301.163 140.288C301.178 140.376 301.227 140.455 301.299 140.508C301.37 140.561 301.46 140.584 301.548 140.572C301.971 140.53 302.398 140.591 302.793 140.748C303.188 140.905 303.54 141.154 303.819 141.474C303.85 141.508 303.887 141.535 303.929 141.554C303.971 141.574 304.016 141.584 304.062 141.586Z" fill="#263238"/>
<path d="M317.015 154.549C316.001 159.769 315.373 166.995 319.042 170.472C319.042 170.472 317.623 175.763 307.893 175.763C297.24 175.763 302.774 171.121 302.774 171.121C307.204 169.742 307.163 164.705 306.15 160.651L317.015 154.549Z" fill="#FF8B7B"/>
<path d="M321.018 173.959C321.971 172.621 321.93 168.374 320.916 167.624C319.285 166.418 312.281 166.134 302.865 168.303C303.878 172.419 301.699 174.567 301.699 174.567L321.018 173.959Z" fill="#F37A20"/>
<path d="M352.703 414.591C352.414 414.693 352.107 414.736 351.801 414.719C351.495 414.701 351.195 414.624 350.919 414.49C350.815 414.392 350.743 414.265 350.714 414.125C350.685 413.985 350.7 413.84 350.757 413.709C350.789 413.6 350.845 413.498 350.92 413.412C350.995 413.327 351.089 413.258 351.193 413.213C352.156 412.746 354.366 413.648 354.467 413.689C354.497 413.701 354.523 413.722 354.541 413.749C354.559 413.776 354.569 413.808 354.568 413.841C354.568 413.873 354.56 413.905 354.544 413.934C354.528 413.962 354.505 413.986 354.477 414.003C353.906 414.254 353.312 414.451 352.703 414.591V414.591ZM351.538 413.446C351.471 413.461 351.406 413.485 351.345 413.517C351.282 413.54 351.225 413.577 351.179 413.627C351.133 413.676 351.1 413.736 351.082 413.8C350.99 414.104 351.082 414.206 351.142 414.236C351.528 414.561 352.947 414.236 353.95 413.861C353.187 413.545 352.363 413.403 351.538 413.446V413.446Z" fill="#F37A20"/>
<path d="M354.435 414.013H354.354C353.543 413.78 351.82 412.554 351.799 411.753C351.799 411.626 351.841 411.502 351.921 411.402C352 411.303 352.111 411.233 352.235 411.206C352.355 411.161 352.484 411.143 352.612 411.153C352.74 411.164 352.864 411.202 352.975 411.266C353.928 411.753 354.536 413.719 354.556 413.811C354.57 413.835 354.578 413.863 354.578 413.892C354.578 413.92 354.57 413.948 354.556 413.973C354.541 413.989 354.521 414 354.5 414.007C354.479 414.015 354.457 414.016 354.435 414.013V414.013ZM352.407 411.489H352.326C352.124 411.56 352.124 411.662 352.124 411.712C352.124 412.189 353.279 413.152 354.151 413.537C353.938 412.969 353.472 411.844 352.853 411.51C352.716 411.447 352.56 411.44 352.418 411.489H352.407Z" fill="#F37A20"/>
<path d="M300.056 415.786C299.144 415.786 298.262 415.655 297.968 415.249C297.891 415.141 297.85 415.012 297.85 414.879C297.85 414.747 297.891 414.617 297.968 414.509C298.026 414.41 298.104 414.324 298.196 414.256C298.288 414.188 298.394 414.14 298.505 414.114C299.691 413.79 302.185 415.209 302.286 415.27C302.317 415.285 302.342 415.31 302.357 415.341C302.372 415.373 302.375 415.408 302.367 415.442C302.363 415.476 302.348 415.509 302.325 415.535C302.301 415.56 302.27 415.577 302.235 415.584C301.516 415.716 300.787 415.783 300.056 415.786ZM298.931 414.398C298.824 414.38 298.714 414.38 298.607 414.398C298.538 414.412 298.473 414.44 298.416 414.48C298.358 414.52 298.309 414.571 298.272 414.631C298.151 414.844 298.201 414.945 298.272 415.006C298.607 415.472 300.401 415.482 301.729 415.29C300.862 414.816 299.912 414.513 298.931 414.398V414.398Z" fill="#F37A20"/>
<path d="M302.226 415.584H302.155C301.293 415.199 299.59 413.658 299.722 412.847C299.722 412.655 299.884 412.421 300.35 412.381C300.517 412.361 300.686 412.376 300.846 412.425C301.007 412.474 301.156 412.556 301.283 412.665C301.932 413.441 302.322 414.402 302.398 415.411C302.398 415.44 302.391 415.469 302.379 415.495C302.367 415.521 302.349 415.545 302.327 415.563C302.296 415.579 302.261 415.586 302.226 415.584ZM300.482 412.695H300.381C300.077 412.695 300.057 412.837 300.057 412.877C299.975 413.364 301.131 414.58 302.013 415.107C301.935 414.294 301.606 413.525 301.07 412.908C300.904 412.766 300.691 412.69 300.472 412.695H300.482Z" fill="#F37A20"/>
<path d="M310.052 415.422H302.926L302.217 398.911H309.342L310.052 415.422Z" fill="#FF8B7B"/>
<path d="M362.38 412.118L355.417 413.628L348.413 398.252L355.386 396.742L362.38 412.118Z" fill="#FF8B7B"/>
<path d="M354.737 412.928L362.572 411.236C362.708 411.207 362.851 411.225 362.976 411.287C363.102 411.35 363.202 411.453 363.261 411.58L365.977 417.479C366.049 417.622 366.087 417.78 366.086 417.94C366.086 418.1 366.047 418.258 365.974 418.4C365.901 418.543 365.795 418.666 365.665 418.759C365.535 418.853 365.385 418.914 365.227 418.939C362.49 419.476 361.122 419.608 357.686 420.348C355.568 420.814 350.784 421.979 347.854 422.608C344.925 423.236 343.922 420.429 345.067 419.912C350.186 417.57 352.314 415.513 353.703 413.597C353.954 413.255 354.322 413.017 354.737 412.928V412.928Z" fill="#263238"/>
<path d="M302.975 414.59H310.759C310.901 414.591 311.037 414.64 311.148 414.728C311.258 414.816 311.335 414.939 311.367 415.077L312.776 421.412C312.818 421.565 312.822 421.725 312.79 421.881C312.758 422.036 312.69 422.182 312.592 422.306C312.493 422.43 312.367 422.529 312.223 422.596C312.079 422.662 311.921 422.694 311.763 422.689C308.955 422.638 304.901 422.476 301.374 422.476C297.238 422.476 293.681 422.699 288.836 422.699C285.906 422.699 285.096 419.739 286.322 419.466C291.897 418.249 296.458 418.118 301.272 415.148C301.778 414.809 302.367 414.616 302.975 414.59V414.59Z" fill="#263238"/>
<path d="M331.793 172.104C338.472 173.635 343.956 190.693 343.956 190.693L330.607 200.9C327.142 197.195 324.698 192.655 323.512 187.723C321.15 178.784 324.961 170.523 331.793 172.104Z" fill="#236CD9"/>
<path opacity="0.4" d="M331.793 172.104C338.472 173.635 343.956 190.693 343.956 190.693L330.607 200.9C327.142 197.195 324.698 192.655 323.512 187.723C321.15 178.784 324.961 170.523 331.793 172.104Z" fill="black"/>
<path d="M296.651 192.447C294.989 194.241 293.326 195.842 291.583 197.514C290.721 198.325 289.85 199.136 288.958 199.917L287.61 201.102L287.275 201.396L286.698 201.863C286.103 202.338 285.444 202.727 284.741 203.018C283.959 203.35 283.118 203.523 282.268 203.525C281.542 203.528 280.821 203.401 280.14 203.15C279.384 202.862 278.695 202.424 278.113 201.863C277.37 201.137 276.826 200.233 276.532 199.238C276.378 198.747 276.279 198.24 276.238 197.727C276.184 197.127 276.184 196.523 276.238 195.923C276.288 195.437 276.349 195.011 276.43 194.616C276.708 193.234 277.101 191.877 277.606 190.561C278.062 189.31 278.586 188.086 279.177 186.892C279.826 185.605 280.444 184.662 281.062 183.588C283.573 179.474 286.439 175.588 289.627 171.972C292.782 168.379 296.26 165.081 300.016 162.121L303.746 165.962C301.131 169.469 298.556 173.229 296.174 176.929C293.804 180.607 291.638 184.414 289.688 188.331C289.252 189.284 288.674 190.359 288.4 191.129C288.038 192.024 287.723 192.937 287.458 193.866C287.202 194.702 287.009 195.555 286.88 196.42C286.873 196.555 286.873 196.69 286.88 196.825C286.88 196.906 286.88 196.947 286.88 196.734C286.863 196.506 286.819 196.282 286.748 196.065C286.529 195.346 286.128 194.697 285.583 194.18C285.098 193.734 284.529 193.39 283.91 193.166C283.366 192.96 282.789 192.854 282.208 192.852C281.648 192.845 281.093 192.952 280.576 193.166C280.401 193.238 280.231 193.322 280.069 193.42L280.454 193.065L281.68 191.95L284.103 189.68C285.704 188.169 287.316 186.558 288.836 185.058L296.651 192.447Z" fill="#FF8B7B"/>
<path opacity="0.2" d="M326.064 184.632C329.692 188.22 330.878 194.768 331.131 200.444L330.544 200.9C327.079 197.195 324.634 192.655 323.449 187.723C323.317 187.196 323.195 186.71 323.104 186.132L326.064 184.632Z" fill="black"/>
<path d="M289.566 179.199C288.106 186.902 287.194 202.724 291.42 234.043H329.591C329.855 228.195 326.176 199.633 331.821 172.053C327.603 171.243 323.337 170.705 319.05 170.442C313.649 170.132 308.234 170.132 302.833 170.442C301.049 170.604 299.286 170.867 297.765 171.141C295.743 171.496 293.877 172.456 292.413 173.895C290.948 175.334 289.956 177.184 289.566 179.199Z" fill="#236CD9"/>
<path opacity="0.4" d="M289.566 179.199C288.106 186.902 287.194 202.724 291.42 234.043H329.591C329.855 228.195 326.176 199.633 331.821 172.053C327.603 171.243 323.337 170.705 319.05 170.442C313.649 170.132 308.234 170.132 302.833 170.442C301.049 170.604 299.286 170.867 297.765 171.141C295.743 171.496 293.877 172.456 292.413 173.895C290.948 175.334 289.956 177.184 289.566 179.199Z" fill="black"/>
<path opacity="0.2" d="M295.406 190.622L288.514 188.97C288.301 193.146 288.281 198.315 288.585 204.711C291.757 201.103 295.811 195.467 295.406 190.622Z" fill="black"/>
<path opacity="0.2" d="M302.217 398.911L302.582 407.425H309.717L309.352 398.911H302.217Z" fill="black"/>
<path opacity="0.2" d="M355.386 396.742L348.413 398.252L352.021 406.178L358.995 404.668L355.386 396.742Z" fill="black"/>
<path d="M320.4 146.927C318.575 153.759 317.846 157.854 313.629 160.692C307.294 165.009 299.388 160.063 299.186 152.846C298.963 146.329 301.993 136.244 309.321 134.866C310.932 134.564 312.593 134.676 314.147 135.194C315.702 135.711 317.099 136.615 318.208 137.822C319.316 139.029 320.099 140.498 320.482 142.091C320.866 143.684 320.837 145.348 320.4 146.927V146.927Z" fill="#FF8B7B"/>
<path d="M304.404 147.18C304.06 146.268 302.489 139.203 303.968 137.369C305.448 135.534 322.324 136.862 324.817 139.315C328.963 143.369 326.084 147.018 321.554 151.711C318.148 155.238 318.016 159.211 316.293 159.819C313.253 160.833 308.61 159.88 307.678 156.667C306.746 153.454 304.404 147.18 304.404 147.18Z" fill="#263238"/>
<path d="M322.773 131.278C316.813 128.744 305.633 131.551 299.592 130.092C299.515 132.338 300.254 134.536 301.672 136.28C303.09 138.024 305.091 139.196 307.306 139.579C312.317 140.534 317.408 141.006 322.509 140.988C329.138 140.684 327.841 133.437 322.773 131.278Z" fill="#263238"/>
<path d="M323.704 139.528C325.881 139.742 328.074 139.323 330.019 138.322C331.134 141.018 325.001 141.758 323.704 139.528Z" fill="#263238"/>
<path d="M307.647 147.464C307.51 149.222 306.798 150.886 305.62 152.198C304.059 153.911 302.437 152.836 302.164 150.759C301.92 148.873 302.427 145.691 304.333 144.778C306.238 143.866 307.779 145.346 307.647 147.464Z" fill="#FF8B7B"/>
<path d="M304.953 234.074C304.953 234.074 313.061 288.553 317.49 308.967C322.345 331.316 348.435 405.256 348.435 405.256L361.196 402.489C361.196 402.489 342.951 342.222 338.897 310.973C335.755 286.972 329.582 234.054 329.582 234.054L304.953 234.074Z" fill="#333333"/>
<path d="M345.371 401.009C345.32 401.009 347.753 405.631 347.753 405.631L362.105 402.519L360.899 398.201L345.371 401.009Z" fill="#263238"/>
<path opacity="0.3" d="M310.072 253.484C319.427 255.318 318.434 290.205 317.308 308.156C314.612 295.466 310.659 271.059 307.963 253.737C308.617 253.415 309.361 253.325 310.072 253.484V253.484Z" fill="black"/>
<path d="M291.42 234.074C291.42 234.074 290.406 287.377 291.217 309.078C292.028 331.691 299.924 405.732 299.924 405.732H312.006C312.006 405.732 312.441 333.008 313.019 310.801C313.607 286.597 316.526 234.033 316.526 234.033L291.42 234.074Z" fill="#333333"/>
<path d="M297.601 400.968C297.54 400.968 298.28 405.975 298.28 405.975H312.967L313.372 401.505L297.601 400.968Z" fill="#263238"/>
<path d="M304.504 181.571C307.919 190.784 287.84 201.639 287.84 201.639L279.144 190.49C279.144 190.49 284.992 178.915 292.087 173.705C300.855 167.279 301.899 174.557 304.504 181.571Z" fill="#236CD9"/>
<path opacity="0.4" d="M304.504 181.571C307.919 190.784 287.84 201.639 287.84 201.639L279.144 190.49C279.144 190.49 284.992 178.915 292.087 173.705C300.855 167.279 301.899 174.557 304.504 181.571Z" fill="black"/>
<path d="M383.182 111.624C403.385 111.624 419.762 101.187 419.762 88.3121C419.762 75.4372 403.385 65 383.182 65C362.98 65 346.603 75.4372 346.603 88.3121C346.603 101.187 362.98 111.624 383.182 111.624Z" fill="#F37A20"/>
<path d="M369.985 100.049C367.575 100.041 365.245 99.1846 363.405 97.6294C361.564 96.0741 360.33 93.9199 359.92 91.5453C359.517 88.9731 360.097 86.3435 361.546 84.1798C362.994 82.0161 365.203 80.477 367.735 79.869V79.869C369.812 79.3903 371.988 79.5748 373.955 80.3966C375.922 81.2184 377.582 82.6361 378.702 84.4503L402.186 79.6055C403.089 79.4078 404.033 79.5579 404.829 80.0258C405.626 80.4936 406.217 81.2448 406.484 82.1293C406.607 82.5943 406.633 83.0795 406.562 83.5552C406.491 84.0309 406.324 84.4871 406.071 84.896C405.818 85.3049 405.484 85.6578 405.089 85.9332C404.695 86.2086 404.249 86.4007 403.778 86.4977L403.169 86.6194C403.079 86.6356 402.994 86.6723 402.92 86.7268C402.846 86.7813 402.786 86.8521 402.744 86.9336C402.706 87.0164 402.687 87.1062 402.687 87.1971C402.687 87.288 402.706 87.3778 402.744 87.4606L403.159 88.535C403.298 88.8833 403.312 89.2692 403.197 89.6262C403.083 89.9833 402.847 90.2892 402.531 90.4912C402.282 90.6452 402.071 90.8539 401.915 91.1015C401.758 91.3492 401.661 91.6292 401.629 91.9203C401.599 92.2545 401.464 92.5706 401.244 92.8236C401.024 93.0767 400.729 93.2536 400.402 93.3292L399.926 93.4306C399.596 93.4916 399.255 93.4459 398.952 93.3001C398.65 93.1543 398.401 92.916 398.243 92.6197C398.033 92.2662 397.718 91.9871 397.341 91.8214C396.965 91.6557 396.546 91.6116 396.143 91.6953C395.74 91.779 395.374 91.9863 395.094 92.2882C394.815 92.5902 394.637 92.9718 394.584 93.3799C394.556 93.7119 394.423 94.0263 394.205 94.2777C393.986 94.5292 393.693 94.7046 393.368 94.7786L392.892 94.88C392.562 94.9394 392.221 94.893 391.919 94.7473C391.617 94.6017 391.368 94.3643 391.209 94.0691C391.057 93.8177 390.853 93.6023 390.61 93.4378C390.366 93.2733 390.09 93.1636 389.8 93.1164C389.411 93.0694 389.051 92.8819 388.79 92.5889C388.529 92.2959 388.384 91.9176 388.381 91.525V90.3696C388.377 90.2792 388.354 90.1907 388.312 90.1103C388.271 90.0299 388.213 89.9593 388.141 89.9035C388.07 89.8477 387.988 89.8079 387.9 89.7869C387.812 89.7659 387.72 89.7641 387.631 89.7817L380.141 91.3223C379.836 93.3975 378.898 95.3281 377.456 96.8515C376.015 98.3749 374.138 99.4171 372.083 99.8363C371.393 99.9775 370.69 100.049 369.985 100.049V100.049ZM367.958 80.7914C365.659 81.3283 363.649 82.7164 362.333 84.6761C361.016 86.6358 360.491 89.0214 360.863 91.3527C361.262 93.5217 362.423 95.4763 364.138 96.8631C365.853 98.2498 368.007 98.9772 370.211 98.9135C372.415 98.8498 374.524 97.9993 376.156 96.5159C377.788 95.0324 378.835 93.014 379.107 90.8257V90.4608L387.368 88.7884C387.605 88.7311 387.852 88.7272 388.09 88.7772C388.329 88.8271 388.553 88.9295 388.747 89.0771C388.942 89.2246 389.1 89.4135 389.212 89.63C389.324 89.8466 389.387 90.0854 389.395 90.329V91.4845C389.397 91.6221 389.447 91.7547 389.535 91.8599C389.624 91.9651 389.746 92.0366 389.882 92.0622C390.325 92.1257 390.747 92.2892 391.118 92.5403C391.488 92.7914 391.797 93.1236 392.02 93.5116C392.074 93.621 392.16 93.711 392.267 93.7691C392.375 93.8272 392.497 93.8506 392.618 93.836L393.084 93.7346C393.203 93.7042 393.308 93.6365 393.384 93.5416C393.461 93.4466 393.505 93.3295 393.51 93.2076C393.574 92.5766 393.837 91.9823 394.261 91.5105C394.684 91.0388 395.247 90.714 395.868 90.5831C396.488 90.4522 397.134 90.522 397.713 90.7824C398.291 91.0429 398.771 91.4804 399.085 92.0318C399.137 92.1404 399.221 92.23 399.327 92.2882C399.432 92.3463 399.553 92.3701 399.673 92.3562L400.159 92.2548C400.275 92.2226 400.378 92.1541 400.453 92.0593C400.528 91.9645 400.57 91.8484 400.575 91.7278C400.625 91.2827 400.776 90.8551 401.017 90.4774C401.257 90.0997 401.581 89.782 401.963 89.5486C402.075 89.468 402.157 89.3525 402.195 89.2203C402.234 89.0881 402.227 88.9468 402.176 88.8188L401.761 87.7444C401.675 87.5229 401.638 87.2854 401.653 87.0483C401.669 86.8112 401.736 86.5804 401.85 86.3719C401.964 86.1634 402.122 85.9823 402.313 85.8412C402.504 85.7001 402.724 85.6025 402.957 85.5551L403.575 85.4234C403.909 85.352 404.226 85.2139 404.506 85.0173C404.786 84.8207 405.024 84.5697 405.204 84.2792C405.385 83.9887 405.505 83.6647 405.558 83.3266C405.611 82.9886 405.595 82.6434 405.511 82.3117C405.313 81.6738 404.881 81.1344 404.302 80.8016C403.723 80.4689 403.04 80.3675 402.389 80.5177L378.246 85.5349L378.063 85.2206C377.093 83.4938 375.587 82.1296 373.774 81.3342C371.96 80.5388 369.936 80.3553 368.009 80.8116L367.958 80.7914ZM369.985 96.2787C368.726 96.2927 367.49 95.9406 366.427 95.2651C365.171 94.44 364.239 93.2044 363.791 91.7692C363.343 90.3339 363.407 88.7877 363.972 87.3942C364.536 86.0007 365.567 84.8462 366.887 84.1275C368.208 83.4087 369.737 83.1702 371.214 83.4527C372.69 83.7351 374.023 84.521 374.986 85.6764C375.948 86.8318 376.479 88.2851 376.49 89.7886C376.5 91.2921 375.989 92.7527 375.043 93.9214C374.097 95.0901 372.775 95.8945 371.303 96.1976V96.1976C370.871 96.2757 370.433 96.3096 369.995 96.299L369.985 96.2787ZM369.985 84.3084C369.607 84.3106 369.231 84.3479 368.86 84.4199C368.154 84.5703 367.484 84.8583 366.89 85.2675C366.295 85.6767 365.786 86.199 365.393 86.8047C365 87.4103 364.731 88.0875 364.599 88.7974C364.468 89.5073 364.478 90.2361 364.628 90.9423C364.779 91.6484 365.067 92.3179 365.476 92.9127C365.885 93.5076 366.408 94.0159 367.013 94.4089C367.619 94.8018 368.296 95.0716 369.006 95.2029C369.716 95.3342 370.445 95.3243 371.151 95.1739V95.1739C372.211 94.9532 373.182 94.4237 373.941 93.652C374.701 92.8803 375.215 91.901 375.419 90.8376C375.622 89.7743 375.507 88.6743 375.086 87.6765C374.666 86.6787 373.96 85.8277 373.056 85.2308C372.159 84.634 371.103 84.3198 370.026 84.3287L369.985 84.3084Z" fill="white"/>
<path opacity="0.6" d="M353.413 125.297C360.052 125.297 365.434 121.866 365.434 117.634C365.434 113.402 360.052 109.972 353.413 109.972C346.775 109.972 341.393 113.402 341.393 117.634C341.393 121.866 346.775 125.297 353.413 125.297Z" fill="#F37A20"/>
<path opacity="0.3" d="M334.286 128.439C337.012 128.439 339.222 127.033 339.222 125.297C339.222 123.562 337.012 122.155 334.286 122.155C331.56 122.155 329.35 123.562 329.35 125.297C329.35 127.033 331.56 128.439 334.286 128.439Z" fill="#F37A20"/>
</svg>
 
